<?xml version="1.0" encoding="UTF-8" standalone="no"?>
<!DOCTYPE svg PUBLIC "-//W3C//DTD SVG 1.1//EN"
 "http://www.w3.org/Graphics/SVG/1.1/DTD/svg11.dtd">
<!-- Generated by graphviz version 2.38.0 (20140413.2041)
 -->
<!-- Title: G Pages: 1 -->
<svg width="373pt" height="328pt"
 viewBox="0.00 0.00 373.00 328.00" xmlns="http://www.w3.org/2000/svg" xmlns:xlink="http://www.w3.org/1999/xlink">
<g id="graph0" class="graph" transform="scale(1 1) rotate(0) translate(4 324)">
<title>G</title>
<polygon fill="white" stroke="none" points="-4,4 -4,-324 369,-324 369,4 -4,4"/>
<g id="clust1" class="cluster"><title>cluster_Global</title>
<path fill="none" stroke="gray" d="M20,-8C20,-8 345,-8 345,-8 351,-8 357,-14 357,-20 357,-20 357,-300 357,-300 357,-306 351,-312 345,-312 345,-312 20,-312 20,-312 14,-312 8,-306 8,-300 8,-300 8,-20 8,-20 8,-14 14,-8 20,-8"/>
<text text-anchor="middle" x="182.5" y="-299.2" font-family="Times,serif" font-size="11.00" fill="gray">Global</text>
</g>
<g id="clust2" class="cluster"><title>cluster_\AtomicServer</title>
<path fill="none" stroke="gray" d="M28,-16C28,-16 337,-16 337,-16 343,-16 349,-22 349,-28 349,-28 349,-272 349,-272 349,-278 343,-284 337,-284 337,-284 28,-284 28,-284 22,-284 16,-278 16,-272 16,-272 16,-28 16,-28 16,-22 22,-16 28,-16"/>
<text text-anchor="middle" x="182.5" y="-271.2" font-family="Times,serif" font-size="11.00" fill="gray">AtomicServer</text>
</g>
<g id="clust3" class="cluster"><title>cluster_\AtomicServer\Info</title>
<path fill="none" stroke="gray" d="M222.5,-184C222.5,-184 312.5,-184 312.5,-184 318.5,-184 324.5,-190 324.5,-196 324.5,-196 324.5,-244 324.5,-244 324.5,-250 318.5,-256 312.5,-256 312.5,-256 222.5,-256 222.5,-256 216.5,-256 210.5,-250 210.5,-244 210.5,-244 210.5,-196 210.5,-196 210.5,-190 216.5,-184 222.5,-184"/>
<text text-anchor="middle" x="267.5" y="-243.2" font-family="Times,serif" font-size="11.00" fill="gray">Info</text>
</g>
<g id="clust4" class="cluster"><title>cluster_\AtomicServer\Parsers</title>
<path fill="none" stroke="gray" d="M36,-104C36,-104 329,-104 329,-104 335,-104 341,-110 341,-116 341,-116 341,-164 341,-164 341,-170 335,-176 329,-176 329,-176 36,-176 36,-176 30,-176 24,-170 24,-164 24,-164 24,-116 24,-116 24,-110 30,-104 36,-104"/>
<text text-anchor="middle" x="182.5" y="-163.2" font-family="Times,serif" font-size="11.00" fill="gray">Parsers</text>
</g>
<g id="clust5" class="cluster"><title>cluster_\AtomicServer\Interfaces</title>
<path fill="none" stroke="gray" d="M206,-24C206,-24 329,-24 329,-24 335,-24 341,-30 341,-36 341,-36 341,-84 341,-84 341,-90 335,-96 329,-96 329,-96 206,-96 206,-96 200,-96 194,-90 194,-84 194,-84 194,-36 194,-36 194,-30 200,-24 206,-24"/>
<text text-anchor="middle" x="267.5" y="-83.2" font-family="Times,serif" font-size="11.00" fill="gray">Interfaces</text>
</g>
<!-- \\AtomicServer\\Info\\ServerStatus -->
<g id="node1" class="node"><title>\\AtomicServer\\Info\\ServerStatus</title>
<polygon fill="none" stroke="black" points="316.5,-228 218.5,-228 218.5,-192 316.5,-192 316.5,-228"/>
<text text-anchor="middle" x="267.5" y="-207.2" font-family="Courier,monospace" font-size="11.00">ServerStatus</text>
</g>
<!-- \\AtomicServer\\Parsers\\NginxConfigParser -->
<g id="node2" class="node"><title>\\AtomicServer\\Parsers\\NginxConfigParser</title>
<polygon fill="none" stroke="black" points="333,-148 202,-148 202,-112 333,-112 333,-148"/>
<text text-anchor="middle" x="267.5" y="-127.2" font-family="Courier,monospace" font-size="11.00">NginxConfigParser</text>
</g>
<!-- \\AtomicServer\\Parsers\\ConfigParser -->
<g id="node3" class="node"><title>\\AtomicServer\\Parsers\\ConfigParser</title>
<polygon fill="none" stroke="black" points="130,-148 32,-148 32,-112 130,-112 130,-148"/>
<text text-anchor="middle" x="81" y="-127.2" font-family="Courier,monospace" font-size="11.00">ConfigParser</text>
</g>
<!-- \\AtomicServer\\Parsers\\NginxConfigParser&#45;&gt;\\AtomicServer\\Parsers\\ConfigParser -->
<g id="edge1" class="edge"><title>\\AtomicServer\\Parsers\\NginxConfigParser&#45;&gt;\\AtomicServer\\Parsers\\ConfigParser</title>
<path fill="none" stroke="black" d="M201.971,-130C181.884,-130 159.863,-130 140.233,-130"/>
<polygon fill="none" stroke="black" points="140.208,-126.5 130.208,-130 140.208,-133.5 140.208,-126.5"/>
</g>
<!-- \\AtomicServer\\Interfaces\\IWebServerManager -->
<g id="node4" class="node"><title>\\AtomicServer\\Interfaces\\IWebServerManager</title>
<polygon fill="none" stroke="black" points="333,-68 202,-68 202,-32 333,-32 333,-68"/>
<text text-anchor="middle" x="267.5" y="-47.2" font-family="Courier,monospace" font-size="11.00">IWebServerManager</text>
</g>
</g>
</svg>
